PathFileType	4	(X/Y/Z)	C:\Users\italobelli\Desktop\GitHub\PTbot_officialCBL\Personal_Results\SHRUG21_noisy2.trc
DataRate	CameraRate	NumFrames	NumMarkers	Units	OrigDataRate	OrigDataStartFrame	OrigNumFrames
112.250000	112.250000	47	9	m	112.250000	169	450
Frame#	Time		gu		centelbow		EpL		centpxt8		centijc7		ij		ts		aa		ai
			X1	Y1	Z1	X2	Y2	Z2	X3	Y3	Z3	X4	Y4	Z4	X5	Y5	Z5	X6	Y6	Z6	X7	Y7	Z7	X8	Y8	Z8	X9	Y9	Z9

169	1.4967	-0.091733	0.049306	0.15859	-0.11521	-0.18678	0.21304	-0.10213	-0.17733	0.24095	-0.046816	-0.15316	-0.008669	-0.046816	0.031938	-0.008669	0	0	0	-0.13544	0.05512	0.031764	-0.12145	0.087242	0.14577	-0.15598	-0.050005	0.069329
170	1.5056	-0.091876	0.049374	0.15859	-0.11522	-0.18676	0.21308	-0.10214	-0.17732	0.241	-0.046816	-0.15316	-0.008669	-0.046816	0.031938	-0.008669	0	0	0	-0.13546	0.05514	0.031726	-0.12163	0.087246	0.14575	-0.15598	-0.049999	0.069318
171	1.5145	-0.092018	0.049433	0.1586	-0.11525	-0.18677	0.2131	-0.10217	-0.17733	0.24104	-0.046816	-0.15316	-0.008669	-0.046816	0.031938	-0.008669	0	0	0	-0.13547	0.055156	0.031692	-0.12181	0.087239	0.14575	-0.15599	-0.049997	0.0693
172	1.5234	-0.092159	0.04949	0.1586	-0.1153	-0.1868	0.21312	-0.10223	-0.17736	0.24108	-0.046816	-0.15316	-0.008669	-0.046816	0.031938	-0.008669	0	0	0	-0.13549	0.055171	0.031659	-0.12198	0.087231	0.14574	-0.156	-0.049996	0.069277
173	1.5323	-0.092299	0.049546	0.15861	-0.11537	-0.18685	0.21313	-0.1023	-0.17741	0.24111	-0.046816	-0.15316	-0.008669	-0.046816	0.031938	-0.008669	0	0	0	-0.1355	0.055184	0.031626	-0.12215	0.08722	0.14573	-0.15601	-0.049997	0.06925
174	1.5412	-0.092438	0.0496	0.15861	-0.11545	-0.18692	0.21314	-0.1024	-0.17749	0.24114	-0.046816	-0.15316	-0.008669	-0.046816	0.031938	-0.008669	0	0	0	-0.13552	0.055197	0.031594	-0.12233	0.087207	0.14573	-0.15603	-0.049998	0.069217
175	1.5501	-0.092576	0.049653	0.15862	-0.11555	-0.18701	0.21314	-0.10251	-0.17759	0.24116	-0.046816	-0.15316	-0.008669	-0.046816	0.031938	-0.008669	0	0	0	-0.13554	0.055209	0.031563	-0.1225	0.087192	0.14572	-0.15604	-0.050001	0.069181
176	1.559	-0.092713	0.049704	0.15863	-0.11567	-0.18712	0.21313	-0.10264	-0.1777	0.24117	-0.046816	-0.15316	-0.008669	-0.046816	0.031938	-0.008669	0	0	0	-0.13555	0.05522	0.031533	-0.12266	0.087176	0.14572	-0.15606	-0.050005	0.06914
177	1.5679	-0.09285	0.049755	0.15864	-0.1158	-0.18725	0.21312	-0.10279	-0.17783	0.24118	-0.046816	-0.15316	-0.008669	-0.046816	0.031938	-0.008669	0	0	0	-0.13557	0.05523	0.031504	-0.12283	0.087157	0.14571	-0.15609	-0.050009	0.069095
178	1.5768	-0.092985	0.049804	0.15865	-0.11595	-0.18739	0.2131	-0.10296	-0.17799	0.24119	-0.046816	-0.15316	-0.008669	-0.046816	0.031938	-0.008669	0	0	0	-0.13559	0.055239	0.031475	-0.123	0.087137	0.14571	-0.15611	-0.050015	0.069046
179	1.5857	-0.093118	0.049851	0.15866	-0.11611	-0.18755	0.21308	-0.10314	-0.17815	0.24119	-0.046816	-0.15316	-0.008669	-0.046816	0.031938	-0.008669	0	0	0	-0.1356	0.055247	0.031448	-0.12316	0.087115	0.14571	-0.15614	-0.050022	0.068993
180	1.5947	-0.093251	0.049898	0.15867	-0.11629	-0.18773	0.21306	-0.10334	-0.17834	0.24118	-0.046816	-0.15316	-0.008669	-0.046816	0.031938	-0.008669	0	0	0	-0.13562	0.055255	0.03142	-0.12332	0.087092	0.1457	-0.15616	-0.05003	0.068937
181	1.6036	-0.093383	0.049943	0.15868	-0.11648	-0.18792	0.21303	-0.10355	-0.17854	0.24117	-0.046816	-0.15316	-0.008669	-0.046816	0.031938	-0.008669	0	0	0	-0.13564	0.055262	0.031394	-0.12348	0.087067	0.1457	-0.15619	-0.050038	0.068877
182	1.6125	-0.093514	0.049986	0.15869	-0.11668	-0.18812	0.21299	-0.10378	-0.17875	0.24116	-0.046816	-0.15316	-0.008669	-0.046816	0.031938	-0.008669	0	0	0	-0.13566	0.055267	0.031369	-0.12364	0.087041	0.1457	-0.15623	-0.050047	0.068814
183	1.6214	-0.093644	0.050029	0.1587	-0.11689	-0.18834	0.21295	-0.10402	-0.17898	0.24114	-0.046816	-0.15316	-0.008669	-0.046816	0.031938	-0.008669	0	0	0	-0.13568	0.055273	0.031344	-0.1238	0.087013	0.1457	-0.15626	-0.050057	0.068748
184	1.6303	-0.093772	0.05007	0.15872	-0.11711	-0.18857	0.21291	-0.10427	-0.17922	0.24112	-0.046816	-0.15316	-0.008669	-0.046816	0.031938	-0.008669	0	0	0	-0.1357	0.055277	0.03132	-0.12395	0.086984	0.1457	-0.15629	-0.050068	0.068679
185	1.6392	-0.093899	0.05011	0.15873	-0.11735	-0.18882	0.21286	-0.10454	-0.17948	0.24109	-0.046816	-0.15316	-0.008669	-0.046816	0.031938	-0.008669	0	0	0	-0.13572	0.055281	0.031296	-0.12411	0.086954	0.1457	-0.15633	-0.05008	0.068607
186	1.6481	-0.094026	0.050148	0.15874	-0.11759	-0.18907	0.21281	-0.10481	-0.17974	0.24106	-0.046816	-0.15316	-0.008669	-0.046816	0.031938	-0.008669	0	0	0	-0.13574	0.055284	0.031273	-0.12426	0.086922	0.1457	-0.15637	-0.050092	0.068533
187	1.657	-0.094151	0.050186	0.15876	-0.11784	-0.18933	0.21275	-0.1051	-0.18002	0.24103	-0.046816	-0.15316	-0.008669	-0.046816	0.031938	-0.008669	0	0	0	-0.13576	0.055287	0.031251	-0.12441	0.086889	0.1457	-0.15641	-0.050105	0.068456
188	1.6659	-0.094275	0.050222	0.15877	-0.1181	-0.18961	0.21269	-0.10539	-0.1803	0.24099	-0.046816	-0.15316	-0.008669	-0.046816	0.031938	-0.008669	0	0	0	-0.13578	0.055289	0.03123	-0.12456	0.086856	0.1457	-0.15645	-0.050118	0.068377
189	1.6748	-0.094397	0.050257	0.15879	-0.11837	-0.18989	0.21263	-0.10569	-0.1806	0.24095	-0.046816	-0.15316	-0.008669	-0.046816	0.031938	-0.008669	0	0	0	-0.1358	0.055291	0.031209	-0.12471	0.086821	0.1457	-0.15649	-0.050132	0.068295
190	1.6837	-0.094519	0.050291	0.15881	-0.11864	-0.19018	0.21256	-0.106	-0.1809	0.2409	-0.046816	-0.15316	-0.008669	-0.046816	0.031938	-0.008669	0	0	0	-0.13582	0.055292	0.031188	-0.12485	0.086785	0.1457	-0.15653	-0.050146	0.068212
191	1.6927	-0.094639	0.050324	0.15882	-0.11892	-0.19048	0.21249	-0.10632	-0.18121	0.24085	-0.046816	-0.15316	-0.008669	-0.046816	0.031938	-0.008669	0	0	0	-0.13584	0.055293	0.031169	-0.125	0.086749	0.1457	-0.15658	-0.050161	0.068127
192	1.7016	-0.094758	0.050355	0.15884	-0.1192	-0.19079	0.21241	-0.10665	-0.18153	0.2408	-0.046816	-0.15316	-0.008669	-0.046816	0.031938	-0.008669	0	0	0	-0.13586	0.055293	0.03115	-0.12514	0.086712	0.14571	-0.15662	-0.050176	0.06804
193	1.7105	-0.094876	0.050385	0.15886	-0.11949	-0.1911	0.21234	-0.10698	-0.18186	0.24074	-0.046816	-0.15316	-0.008669	-0.046816	0.031938	-0.008669	0	0	0	-0.13588	0.055294	0.031131	-0.12528	0.086674	0.14571	-0.15667	-0.050191	0.067952
194	1.7194	-0.094992	0.050415	0.15888	-0.11979	-0.19142	0.21226	-0.10731	-0.18219	0.24068	-0.046816	-0.15316	-0.008669	-0.046816	0.031938	-0.008669	0	0	0	-0.1359	0.055293	0.031113	-0.12542	0.086635	0.14571	-0.15671	-0.050207	0.067862
195	1.7283	-0.095108	0.050443	0.15889	-0.12009	-0.19174	0.21217	-0.10765	-0.18252	0.24062	-0.046816	-0.15316	-0.008669	-0.046816	0.031938	-0.008669	0	0	0	-0.13592	0.055293	0.031096	-0.12556	0.086596	0.14572	-0.15676	-0.050223	0.067772
196	1.7372	-0.095222	0.05047	0.15891	-0.12039	-0.19206	0.21208	-0.10799	-0.18286	0.24055	-0.046816	-0.15316	-0.008669	-0.046816	0.031938	-0.008669	0	0	0	-0.13594	0.055292	0.031079	-0.12569	0.086557	0.14572	-0.15681	-0.050239	0.06768
197	1.7461	-0.095334	0.050495	0.15893	-0.12069	-0.19239	0.21199	-0.10834	-0.18321	0.24048	-0.046816	-0.15316	-0.008669	-0.046816	0.031938	-0.008669	0	0	0	-0.13596	0.055291	0.031063	-0.12583	0.086517	0.14572	-0.15686	-0.050255	0.067588
198	1.755	-0.095446	0.05052	0.15895	-0.12099	-0.19272	0.2119	-0.10869	-0.18355	0.24041	-0.046816	-0.15316	-0.008669	-0.046816	0.031938	-0.008669	0	0	0	-0.13598	0.05529	0.031047	-0.12596	0.086476	0.14573	-0.15691	-0.050271	0.067494
199	1.7639	-0.095556	0.050544	0.15897	-0.1213	-0.19305	0.21181	-0.10904	-0.1839	0.24033	-0.046816	-0.15316	-0.008669	-0.046816	0.031938	-0.008669	0	0	0	-0.136	0.055289	0.031032	-0.12609	0.086436	0.14573	-0.15696	-0.050288	0.067401
200	1.7728	-0.095664	0.050566	0.15899	-0.1216	-0.19339	0.21171	-0.10939	-0.18425	0.24026	-0.046816	-0.15316	-0.008669	-0.046816	0.031938	-0.008669	0	0	0	-0.13602	0.055287	0.031017	-0.12622	0.086395	0.14574	-0.15701	-0.050304	0.067307
201	1.7817	-0.095772	0.050588	0.15901	-0.1219	-0.19372	0.21161	-0.10973	-0.18459	0.24018	-0.046816	-0.15316	-0.008669	-0.046816	0.031938	-0.008669	0	0	0	-0.13604	0.055286	0.031003	-0.12635	0.086354	0.14574	-0.15706	-0.050321	0.067213
202	1.7906	-0.095878	0.050608	0.15903	-0.12221	-0.19405	0.21151	-0.11008	-0.18494	0.24009	-0.046816	-0.15316	-0.008669	-0.046816	0.031938	-0.008669	0	0	0	-0.13606	0.055285	0.030989	-0.12648	0.086312	0.14575	-0.15711	-0.050337	0.067118
203	1.7996	-0.095982	0.050628	0.15905	-0.12251	-0.19439	0.2114	-0.11043	-0.18529	0.24001	-0.046816	-0.15316	-0.008669	-0.046816	0.031938	-0.008669	0	0	0	-0.13608	0.055283	0.030975	-0.1266	0.086271	0.14576	-0.15716	-0.050353	0.067024
204	1.8085	-0.096085	0.050646	0.15907	-0.1228	-0.19471	0.2113	-0.11077	-0.18563	0.23992	-0.046816	-0.15316	-0.008669	-0.046816	0.031938	-0.008669	0	0	0	-0.13609	0.055282	0.030962	-0.12673	0.08623	0.14576	-0.15721	-0.050369	0.066931
205	1.8174	-0.096187	0.050663	0.15909	-0.1231	-0.19504	0.21119	-0.11111	-0.18597	0.23983	-0.046816	-0.15316	-0.008669	-0.046816	0.031938	-0.008669	0	0	0	-0.13611	0.05528	0.03095	-0.12685	0.086189	0.14577	-0.15726	-0.050385	0.066838
206	1.8263	-0.096288	0.05068	0.15911	-0.12339	-0.19536	0.21108	-0.11145	-0.18631	0.23974	-0.046816	-0.15316	-0.008669	-0.046816	0.031938	-0.008669	0	0	0	-0.13613	0.055279	0.030938	-0.12697	0.086148	0.14577	-0.15731	-0.050401	0.066745
207	1.8352	-0.096386	0.050695	0.15913	-0.12367	-0.19568	0.21097	-0.11178	-0.18664	0.23965	-0.046816	-0.15316	-0.008669	-0.046816	0.031938	-0.008669	0	0	0	-0.13615	0.055278	0.030926	-0.12709	0.086108	0.14578	-0.15736	-0.050416	0.066653
208	1.8441	-0.096484	0.050709	0.15915	-0.12395	-0.19599	0.21086	-0.11211	-0.18697	0.23956	-0.046816	-0.15316	-0.008669	-0.046816	0.031938	-0.008669	0	0	0	-0.13617	0.055277	0.030915	-0.1272	0.086067	0.14579	-0.15741	-0.050431	0.066563
209	1.853	-0.09658	0.050723	0.15917	-0.12423	-0.1963	0.21075	-0.11243	-0.18729	0.23946	-0.046816	-0.15316	-0.008669	-0.046816	0.031938	-0.008669	0	0	0	-0.13619	0.055277	0.030904	-0.12732	0.086028	0.14579	-0.15746	-0.050446	0.066473
210	1.8619	-0.096674	0.050735	0.15919	-0.1245	-0.1966	0.21063	-0.11274	-0.1876	0.23936	-0.046816	-0.15316	-0.008669	-0.046816	0.031938	-0.008669	0	0	0	-0.1362	0.055276	0.030893	-0.12743	0.085988	0.1458	-0.15751	-0.05046	0.066385
211	1.8708	-0.096767	0.050746	0.15921	-0.12476	-0.1969	0.21052	-0.11304	-0.18791	0.23926	-0.046816	-0.15316	-0.008669	-0.046816	0.031938	-0.008669	0	0	0	-0.13622	0.055276	0.030883	-0.12755	0.085949	0.14581	-0.15756	-0.050474	0.066298
212	1.8797	-0.096859	0.050757	0.15923	-0.12501	-0.19718	0.2104	-0.11334	-0.18821	0.23916	-0.046816	-0.15316	-0.008669	-0.046816	0.031938	-0.008669	0	0	0	-0.13624	0.055276	0.030873	-0.12766	0.085911	0.14582	-0.15761	-0.050487	0.066213
213	1.8886	-0.096949	0.050767	0.15925	-0.12525	-0.19746	0.21028	-0.11363	-0.1885	0.23906	-0.046816	-0.15316	-0.008669	-0.046816	0.031938	-0.008669	0	0	0	-0.13625	0.055277	0.030863	-0.12776	0.085873	0.14582	-0.15765	-0.0505	0.066129
214	1.8976	-0.097037	0.050775	0.15927	-0.12549	-0.19773	0.21016	-0.1139	-0.18878	0.23896	-0.046816	-0.15316	-0.008669	-0.046816	0.031938	-0.008669	0	0	0	-0.13627	0.055278	0.030854	-0.12787	0.085836	0.14583	-0.1577	-0.050512	0.066048
215	1.9065	-0.097124	0.050783	0.15929	-0.12571	-0.19798	0.21004	-0.11417	-0.18905	0.23885	-0.046816	-0.15316	-0.008669	-0.046816	0.031938	-0.008669	0	0	0	-0.13628	0.055279	0.030845	-0.12798	0.0858	0.14584	-0.15775	-0.050523	0.065968
